<svg width="961" height="235" viewBox="0 0 961 235" fill="none" xmlns="http://www.w3.org/2000/svg">
<path d="M230.18 181L254.524 65.724H277.973L297.126 134.997L345.635 65.724H370.695L346.351 181H322.186L338.117 105.999L299.453 161.131H285.491L270.276 105.999L254.345 181H230.18ZM410.553 182.79C401.364 182.79 393.488 181.179 386.925 177.957C380.481 174.735 375.886 169.842 373.142 163.279C370.516 156.596 370.218 148.303 372.247 138.398C374.156 129.329 377.139 121.512 381.197 114.949C385.254 108.386 390.803 103.314 397.844 99.734C405.004 96.154 413.954 94.364 424.694 94.364C437.82 94.364 447.128 97.8247 452.618 104.746C458.226 111.548 459.837 120.498 457.451 131.596L454.229 146.99H392.832C392.712 153.792 394.502 158.446 398.202 160.952C402.02 163.458 409.121 164.711 419.503 164.711C424.037 164.711 428.751 164.293 433.644 163.458C438.536 162.623 442.773 161.549 446.353 160.236L442.773 177.42C438.477 179.21 433.584 180.523 428.095 181.358C422.605 182.313 416.758 182.79 410.553 182.79ZM396.054 132.133H436.329L437.224 127.479C438.298 122.586 437.701 118.768 435.434 116.023C433.166 113.159 428.632 111.727 421.83 111.727C413.834 111.727 407.927 113.338 404.109 116.56C400.29 119.782 397.605 124.973 396.054 132.133ZM498.973 182.79C491.933 182.79 485.787 181.298 480.536 178.315C475.286 175.212 471.527 170.439 469.259 163.995C467.111 157.551 467.111 149.257 469.259 139.114C472.481 123.959 478.448 112.741 487.159 105.462C495.871 98.0633 506.551 94.364 519.2 94.364C528.747 94.364 536.384 96.512 542.112 100.808L550.704 60.354H574.869L549.272 181H528.508L528.687 173.124C524.272 176.346 519.678 178.792 514.904 180.463C510.25 182.014 504.94 182.79 498.973 182.79ZM509.355 165.069C516.873 165.069 523.795 162.503 530.119 157.372L538.174 118.708C534.356 114.293 528.866 112.085 521.706 112.085C514.666 112.085 508.759 114.293 503.985 118.708C499.212 123.004 495.811 129.925 493.782 139.472C491.873 148.541 492.112 155.105 494.498 159.162C496.885 163.1 501.837 165.069 509.355 165.069ZM597.033 80.581L600.971 61.607H627.284L623.346 80.581H597.033ZM577.701 181L591.842 114.054H579.133L585.04 96.154H619.766L601.866 181H577.701Z" fill="url(#paint0_linear_24_36)"/>
<path d="M677.39 182.79C659.013 182.79 645.647 177.718 637.294 167.575C629.06 157.432 626.852 143.35 630.671 125.331C634.728 106.238 642.962 91.2613 655.373 80.402C667.903 69.4233 684.192 63.934 704.24 63.934C711.161 63.934 717.307 64.3517 722.677 65.187C728.166 65.903 733.238 67.0963 737.892 68.767L733.417 89.531C728.763 87.741 723.751 86.488 718.381 85.772C713.011 84.9367 707.402 84.519 701.555 84.519C688.548 84.519 678.285 87.92 670.767 94.722C663.249 101.405 658.058 111.608 655.194 125.331C653.404 133.565 652.986 140.427 653.941 145.916C654.896 151.405 657.581 155.522 661.996 158.267C666.531 161.012 673.273 162.384 682.223 162.384C686.28 162.384 690.278 162.086 694.216 161.489C698.154 160.773 701.794 159.878 705.135 158.804L710.863 131.954H684.013L687.235 116.56H734.491L722.498 172.945C718.083 175.451 712.116 177.718 704.598 179.747C697.08 181.776 688.011 182.79 677.39 182.79ZM779.345 182.79C764.189 182.79 753.569 178.971 747.483 171.334C741.397 163.577 739.845 152.658 742.829 138.577C745.812 124.496 751.659 113.636 760.371 105.999C769.082 98.2423 781.672 94.364 798.14 94.364C813.534 94.364 824.274 98.2423 830.36 105.999C836.446 113.636 837.997 124.496 835.014 138.577C832.03 152.658 826.243 163.577 817.651 171.334C809.059 178.971 796.29 182.79 779.345 182.79ZM783.82 162.205C791.576 162.205 797.483 160.475 801.541 157.014C805.598 153.434 808.581 147.288 810.491 138.577C812.281 129.866 812.042 123.78 809.775 120.319C807.507 116.739 802.197 114.949 793.844 114.949C786.206 114.949 780.299 116.739 776.123 120.319C772.065 123.78 769.142 129.866 767.352 138.577C765.442 147.288 765.621 153.434 767.889 157.014C770.156 160.475 775.466 162.205 783.82 162.205ZM868.642 165.785L873.654 141.799H848.594L852.532 123.004H877.592L882.783 98.481H901.757L896.566 123.004H921.626L917.688 141.799H892.628L887.616 165.785H868.642Z" fill="#008225"/>
<path d="M67.2702 36.0303C73.813 36.3824 79.1097 41.4759 79.7165 48V47.2939L92.7722 99.7383C96.7492 115.715 119.357 115.992 123.724 100.118L137.716 47.3838V48C137.761 47.5227 137.832 47.0535 137.925 46.5928L138.216 45.5C138.231 45.4471 138.239 45.3929 138.246 45.3379C139.844 40.1357 144.542 36.3328 150.163 36.0303L150.716 36H155.716C177.808 36 195.716 53.9086 195.716 76V168C195.716 190.091 177.808 208 155.716 208H143.674C143.701 207.673 143.716 207.34 143.716 207.003V144.801C143.716 134.743 132.086 131.897 128.451 140.767C114.542 174.705 103.32 173.554 89.8386 140.322C86.2381 131.447 74.7165 134.281 74.7165 144.321V207.003C74.7165 207.34 74.7318 207.673 74.7595 208H63.7165C41.6251 208 23.7165 190.091 23.7165 168V76C23.7165 53.9086 41.6251 36 63.7165 36H66.7165L67.2702 36.0303Z" fill="url(#paint1_linear_24_36)"/>
<path d="M199.716 27L202.147 33.9341L208.716 36.5L202.147 39.0659L199.716 46L197.286 39.0659L190.716 36.5L197.286 33.9341L199.716 27Z" fill="#00DE07"/>
<path d="M195.716 67.6406C209.463 69.7102 218.12 73.8353 219.296 79.8838L219.358 80.2451C221.561 95.6262 175.183 117.396 115.136 129.068L112.307 129.608C53.4912 140.648 3.87635 137.691 0.215377 122.843L0.136276 122.483C-1.23105 115.446 7.76663 107.027 23.7164 98.835V101H23.8843C17.1052 104.534 11.7252 108.064 7.9771 111.442C3.18045 115.766 1.56689 119.358 2.10014 122.103C2.63382 124.847 5.47546 127.572 11.5425 129.784C17.4741 131.947 25.8628 133.374 36.1792 133.965C56.7805 135.144 84.6095 132.964 114.754 127.104C144.9 121.245 171.52 112.841 190.179 104.03C199.523 99.6181 206.766 95.152 211.456 90.9248C216.252 86.6008 217.866 83.0089 217.333 80.2646C216.799 77.5206 213.957 74.795 207.89 72.583C204.571 71.3728 200.482 70.3931 195.716 69.6611V67.6406Z" fill="#00DE07"/>
<defs>
<linearGradient id="paint0_linear_24_36" x1="230.001" y1="117.5" x2="961.001" y2="117.5" gradientUnits="userSpaceOnUse">
<stop stop-color="#4C2CA9"/>
<stop offset="0.0001" stop-color="#161371"/>
<stop offset="0.206731" stop-color="#1D1678"/>
<stop offset="1" stop-color="#00095B"/>
</linearGradient>
<linearGradient id="paint1_linear_24_36" x1="109.716" y1="36" x2="109.716" y2="208" gradientUnits="userSpaceOnUse">
<stop stop-color="#5632BC"/>
<stop offset="1" stop-color="#130B42"/>
</linearGradient>
</defs>
</svg>
