<svg width="220" height="181" viewBox="0 0 220 181" fill="none" xmlns="http://www.w3.org/2000/svg">
<path d="M67.2698 9.03027C73.8125 9.38243 79.1093 14.4759 79.7161 21V20.2939L92.7717 72.7383C96.7488 88.7148 119.356 88.9922 123.724 73.1182L137.716 20.3838V21C137.76 20.5227 137.832 20.0535 137.925 19.5928L138.216 18.5C138.231 18.4471 138.239 18.3929 138.245 18.3379C139.843 13.1357 144.541 9.33281 150.162 9.03027L150.716 9H155.716C177.807 9 195.716 26.9086 195.716 49V141C195.716 163.091 177.807 181 155.716 181H143.673C143.701 180.673 143.716 180.34 143.716 180.003V117.801C143.716 107.743 132.086 104.897 128.45 113.767C114.541 147.705 103.319 146.554 89.8381 113.322C86.2377 104.447 74.7161 107.281 74.7161 117.321V180.003C74.7161 180.34 74.7313 180.673 74.759 181H63.7161C41.6247 181 23.7161 163.091 23.7161 141V49C23.7161 26.9086 41.6247 9 63.7161 9H66.7161L67.2698 9.03027Z" fill="url(#paint0_linear_26_60)"/>
<path d="M199.716 0L202.147 6.93414L208.716 9.5L202.147 12.0659L199.716 19L197.285 12.0659L190.716 9.5L197.285 6.93414L199.716 0Z" fill="#00DE07"/>
<path d="M195.716 40.6406C209.463 42.7102 218.12 46.8353 219.296 52.8838L219.357 53.2451C221.561 68.6262 175.183 90.3964 115.136 102.068L112.307 102.608C53.4907 113.648 3.87578 110.691 0.214853 95.8428L0.135752 95.4834C-1.23155 88.4458 7.76617 80.027 23.7158 71.835V74H23.8838C17.1047 77.5341 11.7246 81.0639 7.97657 84.4424C3.17997 88.7662 1.56636 92.3583 2.09962 95.1025C2.63328 97.8466 5.47499 100.572 11.542 102.784C17.4736 104.947 25.8623 106.374 36.1787 106.965C56.7801 108.144 84.6098 105.964 114.755 100.104C144.9 94.2449 171.519 85.8411 190.179 77.0303C199.523 72.6181 206.766 68.152 211.455 63.9248C216.252 59.6008 217.866 56.0089 217.333 53.2646C216.799 50.5205 213.957 47.7951 207.89 45.583C204.57 44.3728 200.481 43.3931 195.716 42.6611V40.6406Z" fill="#00DE07"/>
<defs>
<linearGradient id="paint0_linear_26_60" x1="109.716" y1="9" x2="109.716" y2="181" gradientUnits="userSpaceOnUse">
<stop stop-color="#5632BC"/>
<stop offset="1" stop-color="#130B42"/>
</linearGradient>
</defs>
</svg>
