<svg width="266" height="266" viewBox="0 0 266 266" fill="none" xmlns="http://www.w3.org/2000/svg">
<rect width="266" height="266" rx="43" fill="white"/>
<path d="M90.2703 51.0303C96.8131 51.3824 102.11 56.4759 102.717 63V62.2939L115.772 114.738C119.749 130.715 142.357 130.992 146.724 115.118L160.717 62.3838V63C160.761 62.5227 160.832 62.0535 160.926 61.5928L161.217 60.5C161.231 60.4471 161.24 60.3929 161.246 60.3379C162.844 55.1357 167.542 51.3328 173.163 51.0303L173.717 51H178.717C200.808 51 218.717 68.9086 218.717 91V183C218.717 205.091 200.808 223 178.717 223H166.674C166.701 222.673 166.717 222.34 166.717 222.003V159.801C166.717 149.743 155.086 146.897 151.451 155.767C137.542 189.705 126.32 188.554 112.839 155.322C109.238 146.447 97.7166 149.281 97.7166 159.321V222.003C97.7166 222.34 97.7319 222.673 97.7596 223H86.7166C64.6252 223 46.7166 205.091 46.7166 183V91C46.7166 68.9086 64.6252 51 86.7166 51H89.7166L90.2703 51.0303Z" fill="url(#paint0_linear_27_74)"/>
<path d="M222.717 42L225.147 48.9341L231.717 51.5L225.147 54.0659L222.717 61L220.286 54.0659L213.717 51.5L220.286 48.9341L222.717 42Z" fill="#00DE07"/>
<path d="M218.716 82.6406C232.463 84.7102 241.12 88.8353 242.296 94.8838L242.358 95.2451C244.561 110.626 198.183 132.396 138.136 144.068L135.307 144.608C76.4912 155.648 26.8763 152.691 23.2154 137.843L23.1363 137.483C21.769 130.446 30.7667 122.027 46.7163 113.835V116H46.8843C40.1053 119.534 34.7251 123.064 30.9771 126.442C26.1805 130.766 24.5669 134.358 25.1001 137.103C25.6338 139.847 28.4755 142.572 34.5425 144.784C40.4741 146.947 48.8628 148.374 59.1792 148.965C79.7806 150.144 107.61 147.964 137.755 142.104C167.9 136.245 194.52 127.841 213.179 119.03C222.523 114.618 229.766 110.152 234.456 105.925C239.253 101.601 240.867 98.0089 240.334 95.2646C239.8 92.5205 236.957 89.7951 230.89 87.583C227.571 86.3728 223.482 85.3931 218.716 84.6611V82.6406Z" fill="#00DE07"/>
<defs>
<linearGradient id="paint0_linear_27_74" x1="132.717" y1="51" x2="132.717" y2="223" gradientUnits="userSpaceOnUse">
<stop stop-color="#5632BC"/>
<stop offset="1" stop-color="#130B42"/>
</linearGradient>
</defs>
</svg>
